<svg version="1.2" xmlns="http://www.w3.org/2000/svg" viewBox="0 0 87 26" width="87" height="26"><style>.a{fill:#fff}</style><path class="a" d="m83 24.3c-0.7-0.2-1.3-0.3-1.8-0.5-1.2-0.4-2.3-0.3-3.4 0.3-1.3 0.7-2.6 0.1-3-1.5-0.3-1.3-0.9-2.4-2.1-3.1-0.5-0.3-1-0.6-1.6-0.7q-1.2 0-1.5-1.3-0.8-3.8-1.7-7.6c-0.1-0.3-0.2-0.6-0.3-1-1.4 0.9-2.7 1.6-3.9 2.6-0.8 0.8-0.8 2.1-0.1 3.2 0.8 1.5 1.8 2.8 2.6 4.3 0.3 0.4 0.9 1 0.3 1.6-0.6 0.5-1.1-0.1-1.6-0.5-1.5-1.3-2.9-2.6-4.4-4-0.4-0.3-0.6-0.8-0.7-1.4-0.4-1.8-0.9-3.6-1.3-5.5-1.8 0.7-3.4 1.3-4.9 1.9 0 0.5 0.3 0.7 0.5 0.9q4.1 4.1 8.1 8.1c0.5 0.4 0.9 0.9 0.5 1.5-0.5 0.7-1.1 0.5-1.7 0.2q-1.2-0.7-2.5-1.3-1.5-0.7-2.4 0.7c-1.1 1.7-2.3 1.7-3.4 0.1q-1-1.5-2-2.9c-0.2-0.3-0.4-0.7-0.8-0.6-0.5 0.1-0.5 0.5-0.7 0.8q-0.1 0.4-0.3 0.9c-0.2 0.5-0.5 0.8-1.1 0.8-0.5 0-0.9-0.3-1-0.8q-0.7-1.8-1.3-3.6c-0.4-1.1-0.9-2.2-1.6-3.1-1.4-1.6-1.6-3.5-2-5.4-0.3-1.5-0.6-3-0.9-4.6q-1.2 1-2.1 2.1-5.7 5.7-11.3 11.4c-0.6 0.7-1.2 1.2-2.2 0.8-0.9-0.3-1.1-1.1-1.2-2-0.1-1 0-2.1-0.3-3-0.3 0-0.4 0.1-0.5 0.2-2.8 2.6-5.6 5.1-7.8 8.3q-0.3 0.4-0.6 0.7c-0.7 0.9-1.8 0.7-2.3-0.3-0.1-0.3-0.2-0.7-0.3-1-0.4-1.1-1.3-1.4-2.3-0.7q-3.5 2.7-7 5.3-0.3 0.2-0.5 0.4c-0.2 0.1-0.4 0.1-0.5-0.1-0.2-0.1-0.2-0.3-0.1-0.5q0.2-0.2 0.4-0.4c3.4-3.4 6.7-6.7 10-10.1 0.6-0.5 1-0.6 1.5 0 0.9 0.8 1.9 1.5 2.8 2.3 0.5 0.5 0.9 0.5 1.4 0 2.4-2.4 4.9-4.6 7.3-7 0.6-0.6 1-0.6 1.7-0.1 1 0.7 2.1 1.4 3.1 2.1 0.6 0.4 0.9 0.4 1.4-0.1 2.9-3 5.9-6 8.8-9.1 0.6-0.7 1-0.6 1.7-0.1 3.3 2.8 6.6 5.4 9.8 8.2 0.5 0.3 0.9 0.4 1.5 0.2 2-0.9 4.1-1.7 6.1-2.5 0.7-0.3 1.2-0.3 1.8 0.1 0.8 0.6 1.6 1 2.4 1.5 0.6 0.4 1 0.4 1.5 0 0.7-0.5 1.4-0.9 2-1.3 0.6-0.4 1-0.4 1.5 0.1q6.5 6.2 13 12.3 1.3 1.2 2.6 2.4c0.3 0.3 0.8 0.7 0.5 1.3-0.3 0.6-0.8 0.3-1.3 0.2-0.2 0-0.3-0.1-0.5-0.1zm-33.5-15.1c-2.4-2.1-4.9-4.1-7.6-6.3 0.5 2.2 0.8 4.2 1.2 6.1 0.2 0.9 0.4 1.8 1 2.6 1.5 1.8 2.2 4 3 6.2 0.2 0.6 0.3 1.1 0.7 1.6 0.5-0.3 0.5-0.8 0.7-1.2 0.2-0.6 0.5-1.2 1.2-1.3 0.7 0 1.2 0.3 1.6 0.9q1.2 1.7 2.3 3.3c0.6 0.7 1.1 0.6 1.6-0.1 0.2-0.4 0.4-0.8 0.8-1 1.1-0.8 2.2-0.6 3.3-0.1 0.7 0.3 1.3 0.8 2.2 0.8-3.9-3.8-7.5-8-12-11.5zm31.1 11.4c-3.9-3.7-7.8-7.4-11.9-11.2 0.6 2.8 1.1 5.3 1.7 7.9 0.1 0.4 0.4 0.7 0.8 0.7 1.4 0.1 2.3 1 3.3 1.9 0.7 0.7 0.9 1.6 1.1 2.5 0.3 0.9 1 1.4 1.7 1 1.6-1 3.2-0.7 4.9-0.2 0.3 0.1 0.7 0.3 1.1 0-0.9-0.9-1.7-1.7-2.7-2.6zm-66.7-5.6c-0.5-0.6-0.9-0.6-1.4 0-0.6 0.8-1.4 1.5-2.1 2.2-0.7 0.8-1.5 1.4-2.2 2.4 0.7-0.5 1.3-0.9 1.9-1.3 1.1-0.6 2.3-0.2 2.8 0.9 0.2 0.3 0.3 0.7 0.5 1.1 0.3 0.8 0.6 0.9 1.2 0.2 0.6-0.8 1.3-1.7 1.9-2.5 0.3-0.4 0.2-0.7-0.1-1-0.8-0.6-1.6-1.3-2.5-2zm15.3-3.5q-1.1-0.7-2.2-1.4c-0.3-0.2-0.6-0.7-1-0.3-0.4 0.4-1.2 0.8-1.2 1.5 0 1.4 0.2 2.8 0.3 4.2 0.1 0.8 0.8 1.2 1.4 0.7 1.3-1.2 2.6-2.5 3.8-3.9-0.4-0.3-0.7-0.5-1.1-0.8zm35 6.8c0.3 0.3 0.6 0.6 1.2 1-0.2-0.4-0.3-0.5-0.3-0.6q-1.2-1.8-2.4-3.6c-0.9-1.5-0.7-2.9 0.5-4.2 0.1-0.2 0.3-0.3 0.3-0.6-0.9-0.6-1.9-1.2-2.8-1.7-0.4-0.3-0.8 0-1.1 0.2-0.3 0.2-0.2 0.5-0.1 0.8 0.1 0.5 0.3 1 0.3 1.5 0.3 3.1 1.8 5.4 4.4 7.2z"/></svg>